<svg width="16" height="16" viewBox="0 0 16 16" fill="none" xmlns="http://www.w3.org/2000/svg">
<path d="M12.1434 10.2048C8.15821 10.2048 5.62696 7.73382 5.62696 3.77121C5.62696 2.90486 5.83037 1.75223 6.10157 1.14202C6.19197 0.94615 6.21457 0.810547 6.21457 0.705078C6.21457 0.464007 6.0413 0.230469 5.73243 0.230469C5.61943 0.230469 5.43862 0.260603 5.25029 0.328404C2.44783 1.45089 0.579529 4.41155 0.579529 7.55301C0.579529 11.9752 3.92439 15.1468 8.33148 15.1468C11.5257 15.1468 14.3206 13.2182 15.3075 10.702C15.3904 10.5061 15.413 10.3103 15.413 10.2048C15.413 9.91099 15.187 9.71512 14.9459 9.71512C14.8178 9.71512 14.6973 9.74526 14.524 9.82059C13.959 10.0165 13.0474 10.2048 12.1434 10.2048Z" fill="#1C1C1E"/>
</svg>
