<svg width="20" height="20" viewBox="0 0 20 20" fill="none" xmlns="http://www.w3.org/2000/svg">
<path d="M11 14H5.00001C4.73479 14 4.48044 14.1054 4.2929 14.2929C4.10537 14.4804 4.00001 14.7348 4.00001 15C4.00001 15.2652 4.10537 15.5196 4.2929 15.7071C4.48044 15.8947 4.73479 16 5.00001 16H11C11.2652 16 11.5196 15.8947 11.7071 15.7071C11.8947 15.5196 12 15.2652 12 15C12 14.7348 11.8947 14.4804 11.7071 14.2929C11.5196 14.1054 11.2652 14 11 14ZM7.00001 8.00001H9.00001C9.26522 8.00001 9.51958 7.89465 9.70711 7.70711C9.89465 7.51958 10 7.26522 10 7.00001C10 6.73479 9.89465 6.48044 9.70711 6.2929C9.51958 6.10536 9.26522 6.00001 9.00001 6.00001H7.00001C6.73479 6.00001 6.48044 6.10536 6.2929 6.2929C6.10537 6.48044 6.00001 6.73479 6.00001 7.00001C6.00001 7.26522 6.10537 7.51958 6.2929 7.70711C6.48044 7.89465 6.73479 8.00001 7.00001 8.00001ZM19 10H16V1.00001C16.0007 0.823797 15.9548 0.650531 15.867 0.497753C15.7792 0.344976 15.6526 0.218112 15.5 0.130007C15.348 0.0422391 15.1755 -0.00396729 15 -0.00396729C14.8245 -0.00396729 14.652 0.0422391 14.5 0.130007L11.5 1.85001L8.50001 0.130007C8.34799 0.0422391 8.17554 -0.00396729 8.00001 -0.00396729C7.82447 -0.00396729 7.65203 0.0422391 7.50001 0.130007L4.50001 1.85001L1.50001 0.130007C1.34799 0.0422391 1.17554 -0.00396729 1.00001 -0.00396729C0.824471 -0.00396729 0.652027 0.0422391 0.500008 0.130007C0.347404 0.218112 0.220789 0.344976 0.132986 0.497753C0.0451828 0.650531 -0.000691685 0.823797 7.88288e-06 1.00001V17C7.88288e-06 17.7957 0.316078 18.5587 0.878688 19.1213C1.4413 19.6839 2.20436 20 3.00001 20H17C17.7957 20 18.5587 19.6839 19.1213 19.1213C19.6839 18.5587 20 17.7957 20 17V11C20 10.7348 19.8947 10.4804 19.7071 10.2929C19.5196 10.1054 19.2652 10 19 10ZM3.00001 18C2.73479 18 2.48044 17.8947 2.2929 17.7071C2.10536 17.5196 2.00001 17.2652 2.00001 17V2.73001L4.00001 3.87001C4.15435 3.95062 4.32589 3.99272 4.50001 3.99272C4.67413 3.99272 4.84567 3.95062 5.00001 3.87001L8.00001 2.15001L11 3.87001C11.1543 3.95062 11.3259 3.99272 11.5 3.99272C11.6741 3.99272 11.8457 3.95062 12 3.87001L14 2.73001V17C14.0027 17.3412 14.0636 17.6793 14.18 18H3.00001ZM18 17C18 17.2652 17.8947 17.5196 17.7071 17.7071C17.5196 17.8947 17.2652 18 17 18C16.7348 18 16.4804 17.8947 16.2929 17.7071C16.1054 17.5196 16 17.2652 16 17V12H18V17ZM11 10H5.00001C4.73479 10 4.48044 10.1054 4.2929 10.2929C4.10537 10.4804 4.00001 10.7348 4.00001 11C4.00001 11.2652 4.10537 11.5196 4.2929 11.7071C4.48044 11.8947 4.73479 12 5.00001 12H11C11.2652 12 11.5196 11.8947 11.7071 11.7071C11.8947 11.5196 12 11.2652 12 11C12 10.7348 11.8947 10.4804 11.7071 10.2929C11.5196 10.1054 11.2652 10 11 10Z" fill="#333333"/>
</svg>
